# xmcd
#
# Track frame offsets: 
#        150
#        21544
#        34632
#        50443
#        76675
#        86440
#        103844
#        126670
#        138515
#        157071
#        170572
#
# Disc length: 2503 seconds
#
# Revision: 0
# Processed by: cddbd v1.5.2PL0 Copyright (c) Steve Scherf et al.
# Submitted via: ExactAudioCopy v0.99pb5
#
DISCID=9309c50b
DTITLE=Matt Hill - Tappin' That Thang
DYEAR=2012
DGENRE=Blues
TTITLE0=Tappin'
TTITLE1=Same Old Fucking Thing
TTITLE2=Ain't No Boy
TTITLE3=Always Alone
TTITLE4=Crude Man
TTITLE5=Let Me Put My Love Into You
TTITLE6=Mow My Baby Down
TTITLE7=Caramel Baby
TTITLE8=Soul Twang
TTITLE9=Down The Line
TTITLE10=High And Dry
EXTD=
EXTT0=
EXTT1=
EXTT2=
EXTT3=
EXTT4=
EXTT5=
EXTT6=
EXTT7=
EXTT8=
EXTT9=
EXTT10=
PLAYORDER=
